<?xml version="1.0" standalone="no"?>
<!DOCTYPE svg PUBLIC "-//W3C//DTD SVG 20010904//EN"
 "http://www.w3.org/TR/2001/REC-SVG-20010904/DTD/svg10.dtd">
<svg version="1.0" xmlns="http://www.w3.org/2000/svg"
 width="512.000000pt" height="512.000000pt" viewBox="0 0 512.000000 512.000000"
 preserveAspectRatio="xMidYMid meet">

<g transform="translate(0.000000,512.000000) scale(0.100000,-0.100000)"
fill="#000000" stroke="none">
<path d="M2495 5022 c-45 -9 -84 -73 -120 -194 l-15 -54 -83 -12 c-108 -16
-149 -28 -181 -53 -57 -45 -20 -128 97 -214 l65 -48 -5 -126 c-5 -119 -4 -127
16 -148 32 -34 82 -30 158 12 l63 35 -15 -30 c-9 -17 -45 -61 -80 -99 -101
-107 -269 -215 -415 -266 -193 -69 -313 -172 -366 -315 -9 -25 -19 -88 -23
-139 l-6 -95 -89 -17 c-311 -61 -495 -288 -496 -609 l0 -85 -67 -35 c-90 -47
-191 -147 -231 -231 -48 -97 -66 -179 -65 -299 1 -248 103 -419 313 -524 50
-25 101 -46 111 -46 11 0 23 -10 28 -22 4 -13 74 -300 156 -638 81 -338 155
-623 163 -632 14 -17 82 -18 1157 -18 1075 0 1143 1 1157 18 8 9 82 294 163
632 81 338 151 622 156 630 4 8 31 23 61 34 164 58 287 200 334 386 21 80 23
253 5 330 -43 179 -149 315 -307 393 l-61 30 19 61 c61 194 15 407 -118 555
-30 33 -54 62 -54 65 0 3 14 25 30 50 53 78 73 149 73 261 0 117 -19 179 -87
278 -38 55 -114 128 -162 155 -16 9 -15 13 10 57 34 58 97 120 148 146 46 23
63 51 48 78 -17 33 -46 34 -101 5 -61 -33 -156 -133 -184 -192 -18 -40 -22
-43 -50 -37 -69 14 -224 17 -278 5 -79 -16 -181 -70 -249 -130 l-58 -51 -100
56 c-55 31 -133 82 -173 114 -97 77 -190 181 -162 181 3 0 33 -11 67 -25 154
-63 196 -7 152 202 l-16 77 45 41 c141 126 156 229 37 254 -28 6 -89 11 -135
11 l-83 0 -41 84 c-62 128 -96 160 -156 148z m86 -228 c21 -46 45 -86 52 -89
6 -2 65 -7 130 -10 67 -4 117 -11 117 -17 0 -6 -36 -46 -81 -89 -58 -56 -79
-83 -75 -96 30 -99 44 -203 26 -203 -5 0 -50 18 -99 40 -49 22 -95 40 -102 40
-8 0 -52 -25 -98 -55 -46 -30 -88 -55 -94 -55 -7 0 -8 39 -4 114 7 126 7 125
-60 170 -56 37 -119 93 -113 99 3 3 52 13 110 22 135 21 146 26 160 72 6 21
23 71 37 111 24 69 26 72 40 52 8 -11 32 -59 54 -106z m31 -720 c79 -84 185
-160 374 -266 207 -118 291 -177 367 -256 92 -98 120 -181 92 -278 -14 -48
-28 -68 -89 -128 -39 -39 -84 -81 -99 -93 -33 -27 -35 -58 -3 -78 22 -15 27
-15 56 0 59 31 178 154 210 218 16 33 30 68 30 78 0 45 8 49 63 29 170 -59
281 -143 350 -261 54 -94 72 -239 42 -354 -48 -184 -182 -308 -460 -426 -261
-110 -452 -147 -1024 -194 -613 -52 -862 -100 -1076 -208 -143 -71 -259 -177
-310 -282 -32 -64 -28 -64 -143 -9 -204 98 -299 314 -247 559 49 233 221 364
540 411 102 15 125 27 125 66 0 10 -10 24 -22 32 -20 13 -35 13 -117 0 -52 -7
-110 -18 -130 -24 -20 -5 -40 -10 -45 -10 -11 0 1 129 19 202 29 118 114 236
209 292 87 51 256 90 494 115 56 6 147 16 203 22 254 27 440 115 551 261 63
83 62 128 -2 128 -21 0 -35 -12 -65 -56 -78 -112 -220 -191 -403 -223 -32 -6
-133 -18 -226 -26 -94 -9 -174 -19 -179 -22 -6 -3 -8 29 -5 83 9 176 90 264
327 359 125 50 223 104 321 176 68 49 163 143 194 192 10 15 20 27 22 27 1 0
27 -25 56 -56z m972 -114 c34 -13 84 -92 92 -147 14 -97 -51 -203 -146 -235
l-43 -14 -71 71 c-39 39 -113 99 -165 132 l-93 62 28 27 c81 76 177 113 296
113 42 1 88 -3 102 -9z m518 -1511 c77 -39 166 -127 201 -199 96 -197 65 -466
-70 -611 -59 -63 -103 -92 -182 -119 -60 -20 -78 -20 -1451 -20 l-1390 0 21
43 c12 23 52 72 90 109 139 137 388 225 774 272 127 16 246 27 545 51 496 41
758 100 1035 235 140 68 219 123 295 208 30 33 59 61 63 61 4 1 35 -13 69 -30z
m-172 -1059 c0 -15 -238 -1009 -271 -1132 l-10 -38 -1084 0 -1084 0 -12 43
c-6 23 -60 245 -120 492 -60 248 -120 494 -133 548 l-24 97 1369 0 c907 0
1369 -3 1369 -10z"/>
<path d="M2805 2929 c-150 -62 -479 -138 -700 -164 -77 -9 -159 -18 -183 -21
-51 -6 -72 -36 -53 -73 10 -18 21 -21 71 -21 265 0 955 166 981 236 10 28 -15
64 -44 63 -12 0 -44 -9 -72 -20z"/>
<path d="M4458 4998 c-9 -7 -23 -46 -32 -86 -42 -194 -191 -349 -395 -413 -62
-19 -77 -34 -68 -71 5 -19 18 -28 64 -42 183 -57 332 -217 399 -429 20 -65 43
-85 79 -69 17 8 25 25 35 73 40 189 185 347 383 417 62 22 79 32 84 51 9 38
-7 52 -88 75 -42 12 -99 37 -128 55 -106 69 -197 200 -241 351 -21 71 -40 100
-65 100 -6 0 -18 -6 -27 -12z m59 -270 c51 -106 163 -224 251 -266 17 -9 32
-19 32 -22 0 -4 -28 -24 -62 -45 -82 -50 -173 -144 -222 -228 l-39 -68 -33 58
c-53 94 -124 174 -206 232 l-76 55 61 35 c81 47 195 161 232 233 17 32 32 58
36 58 3 0 14 -19 26 -42z"/>
<path d="M929 4637 c-57 -21 -97 -54 -126 -105 -23 -38 -28 -59 -28 -113 0
-56 5 -73 30 -115 19 -30 49 -60 79 -79 42 -25 59 -30 116 -30 57 0 74 5 116
30 30 19 60 49 79 79 25 42 30 59 30 116 0 57 -5 74 -30 116 -56 90 -175 135
-266 101z m132 -102 c89 -47 89 -183 0 -230 -61 -31 -136 -11 -171 48 -68 111
55 242 171 182z"/>
<path d="M618 1218 c-9 -7 -23 -46 -32 -86 -42 -194 -191 -349 -395 -413 -62
-19 -77 -34 -68 -71 5 -19 18 -28 64 -42 183 -57 332 -217 399 -429 20 -65 43
-85 79 -69 17 8 25 25 35 73 40 189 185 347 383 417 62 22 79 32 84 51 9 38
-7 52 -88 75 -42 12 -99 37 -128 55 -106 69 -197 200 -241 351 -21 71 -40 100
-65 100 -6 0 -18 -6 -27 -12z m64 -281 c16 -28 48 -78 73 -110 39 -49 74 -79
190 -160 19 -14 18 -15 -15 -32 -99 -51 -200 -151 -262 -263 l-30 -53 -40 68
c-56 96 -121 168 -204 226 l-73 50 62 36 c81 47 195 161 232 233 17 32 32 58
35 58 3 0 17 -24 32 -53z"/>
<path d="M4429 857 c-57 -21 -97 -54 -126 -105 -23 -38 -28 -59 -28 -113 0
-56 5 -73 30 -115 19 -30 49 -60 79 -79 42 -25 59 -30 116 -30 57 0 74 5 116
30 30 19 60 49 79 79 25 42 30 59 30 116 0 57 -5 74 -30 116 -56 90 -175 135
-266 101z m132 -102 c117 -61 71 -245 -61 -245 -68 0 -130 61 -130 128 0 98
104 161 191 117z"/>
</g>
</svg>
