<?xml version="1.0" encoding="UTF-8"?>
<!DOCTYPE svg PUBLIC "-//W3C//DTD SVG 1.1//EN" "http://www.w3.org/Graphics/SVG/1.1/DTD/svg11.dtd">
<svg version="1.1" xmlns="http://www.w3.org/2000/svg" xmlns:xlink="http://www.w3.org/1999/xlink" x="0" y="0" width="595" height="535" viewBox="0, 0, 595, 535">
  <g id="Layer_1">
    <path d="M197.479,283.661 C197.479,283.661 104.526,245.184 132.573,145.013 C160.627,44.841 293.651,43.231 400.245,70.481 C506.831,97.731 560.518,166.653 546.901,237.177 C533.276,307.7 480.385,318.919 480.385,318.919 C480.385,318.919 506.831,364.591 506.831,385.434 C506.831,406.278 508.432,428.708 508.432,428.708 L421.877,431.919 L421.877,328.536 C421.877,328.536 322.51,263.63 197.479,283.661" fill="#FFFFFE"/>
    <path d="M304.487,148.442 C304.487,179.52 278.768,204.715 247.057,204.715 C215.346,204.715 189.643,179.52 189.643,148.442 C189.643,117.348 215.346,92.153 247.057,92.153 C278.768,92.153 304.487,117.348 304.487,148.442" fill="#EFB5C6"/>
    <path d="M295.347,140.067 C295.347,161.489 277.464,178.856 255.417,178.856 C233.37,178.856 215.488,161.489 215.488,140.067 C215.488,118.653 233.37,101.278 255.417,101.278 C277.464,101.278 295.347,118.653 295.347,140.067" fill="#E98EA8"/>
    <path d="M242.495,115.637 C242.495,122.41 236.995,127.895 230.229,127.895 C223.456,127.895 217.964,122.41 217.964,115.637 C217.964,108.856 223.456,103.371 230.229,103.371 C236.995,103.371 242.495,108.856 242.495,115.637" fill="#FFFFFE"/>
    <path d="M516.05,182.098 C516.05,213.184 490.339,238.371 458.628,238.371 C426.917,238.371 401.214,213.184 401.214,182.098 C401.214,151.004 426.917,125.809 458.628,125.809 C490.339,125.809 516.05,151.004 516.05,182.098" fill="#EFB5C6"/>
    <path d="M506.917,173.731 C506.917,195.145 489.034,212.512 466.987,212.512 C444.933,212.512 427.05,195.145 427.05,173.731 C427.05,152.309 444.933,134.934 466.987,134.934 C489.034,134.934 506.917,152.309 506.917,173.731" fill="#E98EA8"/>
    <path d="M454.065,149.294 C454.065,156.067 448.573,161.56 441.807,161.56 C435.018,161.56 429.534,156.067 429.534,149.294 C429.534,142.521 435.018,137.028 441.807,137.028 C448.573,137.028 454.065,142.521 454.065,149.294" fill="#FFFFFE"/>
    <path d="M294.253,178.676 C294.253,178.676 320.105,197.903 366.386,200.91 C412.667,203.91 443.917,180.473 443.917,180.473 C443.917,180.473 487.089,296.199 348.948,264.621 C264.808,245.387 294.253,178.676 294.253,178.676" fill="#E0566E"/>
    <path d="M46.026,337.348 L46.026,483.403 C46.026,483.403 92.909,530.887 232.948,530.285 C372.995,529.684 414.464,489.418 419.878,480.996 L418.674,338.551 z" fill="#F7DAA5"/>
    <path d="M237.753,277.841 C237.753,277.841 60.448,279.653 48.425,327.13 C48.425,327.13 26.355,384.232 228.136,384.232 C435.503,384.232 420.48,330.731 420.48,330.731 C420.48,330.731 413.862,273.036 237.753,277.841" fill="#FFFFFE"/>
    <path d="M47.823,390.84 C47.823,390.84 45.425,434.715 230.542,437.723 C415.667,440.731 415.667,395.051 415.667,395.051 L418.073,437.723 C418.073,437.723 351.354,483.403 233.55,475.59 C115.745,467.778 52.635,451.551 46.62,429.91 z" fill="#EFB5C6"/>
    <path d="M126.565,280.247 C126.565,300.497 111.495,316.919 92.909,316.919 C74.315,316.919 59.245,300.497 59.245,280.247 C59.245,260.005 74.315,243.583 92.909,243.583 C111.495,243.583 126.565,260.005 126.565,280.247" fill="#E0566E"/>
    <path d="M192.675,327.13 C192.675,347.38 177.612,363.794 159.019,363.794 C140.425,363.794 125.355,347.38 125.355,327.13 C125.355,306.888 140.425,290.466 159.019,290.466 C177.612,290.466 192.675,306.888 192.675,327.13" fill="#E0566E"/>
    <path d="M344.745,330.731 C344.745,350.981 329.675,367.403 311.089,367.403 C292.495,367.403 277.432,350.981 277.432,330.731 C277.432,310.489 292.495,294.075 311.089,294.075 C329.675,294.075 344.745,310.489 344.745,330.731" fill="#E0566E"/>
    <path d="M409.057,283.856 C409.057,304.106 393.994,320.52 375.401,320.52 C356.807,320.52 341.737,304.106 341.737,283.856 C341.737,263.606 356.807,247.192 375.401,247.192 C393.994,247.192 409.057,263.606 409.057,283.856" fill="#E0566E"/>
    <path d="M95.604,264.02 C95.604,268.996 92.245,273.036 88.096,273.036 C83.948,273.036 80.581,268.996 80.581,264.02 C80.581,259.044 83.948,255.004 88.096,255.004 C92.245,255.004 95.604,259.044 95.604,264.02" fill="#FFFFFE"/>
    <path d="M157.518,312.106 C157.518,317.082 154.151,321.121 150.01,321.121 C145.854,321.121 142.487,317.082 142.487,312.106 C142.487,307.122 145.854,303.09 150.01,303.09 C154.151,303.09 157.518,307.122 157.518,312.106" fill="#FFFFFE"/>
    <path d="M310.182,315.106 C310.182,320.082 306.815,324.129 302.666,324.129 C298.518,324.129 295.159,320.082 295.159,315.106 C295.159,310.129 298.518,306.098 302.666,306.098 C306.815,306.098 310.182,310.129 310.182,315.106" fill="#FFFFFE"/>
    <path d="M377.503,264.622 C377.503,269.598 374.136,273.637 369.987,273.637 C365.839,273.637 362.472,269.598 362.472,264.622 C362.472,259.645 365.839,255.606 369.987,255.606 C374.136,255.606 377.503,259.645 377.503,264.622" fill="#FFFFFE"/>
    <path d="M257.597,347.77 L215.12,347.77 L198.292,216.333 L272.019,213.934 z" fill="#E9C94B"/>
    <path d="M237.557,193.895 C237.557,193.895 202.299,191.489 203.096,169.856 C203.901,148.215 243.166,99.332 243.166,99.332 C243.166,99.332 284.838,170.661 268.01,181.879 C251.182,193.098 237.557,193.895 237.557,193.895" fill="#E89147"/>
    <path d="M237.557,193.895 C237.557,193.895 218.323,182.684 219.932,174.668 C221.526,166.653 239.955,133.793 239.955,133.793 C239.955,133.794 260.799,168.254 257.596,174.668 C254.385,181.075 237.557,193.895 237.557,193.895" fill="#E9C94B"/>
    <path d="M382.612,64.872 L477.182,100.138 L482.784,38.427 z" fill="#ABDAE1"/>
    <path d="M46.862,338.122 L48.471,477.161 C48.471,505.044 131.714,527.645 234.393,527.645 C337.073,527.645 420.315,505.044 420.315,477.161 L420.315,338.122 M420.315,425.083 C420.315,452.958 337.073,475.567 234.393,475.567 C131.714,475.567 48.471,452.958 48.471,425.083 M420.315,389.411 C420.315,417.294 337.073,439.903 234.393,439.903 C131.714,439.903 48.471,417.294 48.471,389.411 M129.409,290.044 C152.245,285.692 174.932,283.872 203.714,282.645 M267.245,282.028 C296.589,283.302 319.667,287.083 342.76,291.591 M401.073,310.067 C414.987,317.137 420.284,323.966 420.284,332.512 C420.284,360.395 336.518,383.005 233.182,383.005 C129.862,383.005 46.089,360.395 46.089,332.512 C46.089,323.45 53.01,315.825 68.503,308.474 M408.292,288.426 C408.292,308.575 393.581,320.083 375.432,320.083 C357.284,320.083 342.581,308.575 342.581,288.426 C342.581,268.294 356.495,247.153 374.628,247.153 C392.776,247.153 408.292,268.294 408.292,288.426 z M346.589,335.716 C346.589,355.848 331.87,367.38 313.729,367.38 C295.581,367.38 280.878,355.848 280.878,335.716 C280.878,315.575 294.784,294.442 312.924,294.442 C331.073,294.442 346.589,315.575 346.589,335.716 z M127.003,286.028 C127.003,306.161 112.284,317.676 94.143,317.676 C75.995,317.676 61.292,306.161 61.292,286.028 C61.292,265.895 75.198,244.755 93.339,244.755 C111.487,244.755 127.003,265.895 127.003,286.028 z M191.917,332.114 C191.917,352.247 177.198,363.77 159.057,363.77 C140.917,363.77 126.206,352.247 126.206,332.114 C126.206,311.966 140.112,290.841 158.253,290.841 C176.401,290.841 191.917,311.966 191.917,332.114 z M235.19,193.075 L235.19,210.708 M272.854,213.903 L197.518,215.513 L215.159,349.348 L258.432,349.348 L272.854,213.903 z M241.604,100.106 C241.604,100.106 159.909,188.45 235.19,193.075 C313.729,197.88 243.206,104.122 241.604,100.106 z M376.198,64.075 L482.823,37.192 L473.971,98.528" fill-opacity="0" stroke="#523B25" stroke-width="10" stroke-linecap="round" stroke-linejoin="round"/>
    <path d="M423.526,372.583 C423.526,372.583 447.557,367.778 457.182,401.435 C466.792,435.091 424.315,444.708 424.315,444.708" fill="#523B25"/>
    <path d="M362.104,118.278 L365.94,200.52 M194.167,280.684 C151.206,254.301 116.487,213.372 131.401,151.59 C164.776,13.372 362.635,60.137 395.229,68.544 C427.838,76.958 562.549,112.786 547.823,235.169 C539.612,303.45 478.682,325.091 420.963,329.926 M10.799,430.286 L45.252,430.286 M450.76,430.286 L586.198,430.286" fill-opacity="0" stroke="#523B25" stroke-width="10" stroke-linecap="round" stroke-linejoin="round"/>
    <path d="M189.315,72.817 C189.315,72.817 161.065,64.02 171.487,29.778 C181.917,-4.464 236.831,0.059 252.042,21.286 C267.221,42.528 254.292,57.817 254.292,57.817 C254.292,57.817 192.635,68.661 189.315,72.817" fill="#523B25"/>
    <path d="M535.651,159.934 C535.651,159.934 563.612,169.59 575.503,135.84 C587.385,102.083 540.463,73.176 515.659,81.278 C490.823,89.379 492.19,109.364 492.19,109.364 C492.19,109.364 535.432,154.637 535.651,159.934" fill="#523B25"/>
    <path d="M327.37,122.434 C323.94,136.973 312.729,146.77 302.354,144.317 C291.964,141.856 286.323,128.082 289.761,113.551 C293.206,99.012 304.393,89.215 314.784,91.668 C325.19,94.129 330.808,107.895 327.37,122.434" fill="#523B25"/>
    <path d="M429.698,139.77 C426.26,154.309 415.057,164.106 404.675,161.645 C394.292,159.2 388.667,145.426 392.104,130.887 C395.534,116.356 406.737,106.551 417.12,109.012 C427.503,111.465 433.128,125.239 429.698,139.77" fill="#523B25"/>
    <path d="M376.136,116.215 C375.12,120.496 368.581,122.629 361.519,120.965 C354.449,119.285 349.558,114.457 350.581,110.168 C351.581,105.871 358.136,103.746 365.191,105.418 C372.261,107.09 377.152,111.918 376.136,116.215" fill="#523B25"/>
    <path d="M479.581,317.309 C479.581,317.309 514.839,371.809 507.628,428.707 M292.769,179.528 C292.769,179.528 274.511,247.348 346.675,267.192 M405.034,271.395 C475.206,260.723 445.175,178.676 445.175,178.676 M274.409,149.949 C274.409,149.949 285.3,194.707 358.901,201.996 C432.503,209.293 448.339,171.028 448.339,171.028" fill-opacity="0" stroke="#523B25" stroke-width="10" stroke-linecap="round" stroke-linejoin="round"/>
  </g>
</svg>
