<?xml version="1.0" standalone="no"?>
<!DOCTYPE svg PUBLIC "-//W3C//DTD SVG 20010904//EN"
 "http://www.w3.org/TR/2001/REC-SVG-20010904/DTD/svg10.dtd">
<svg version="1.0" xmlns="http://www.w3.org/2000/svg"
 width="92.000000pt" height="92.000000pt" viewBox="0 0 92.000000 92.000000"
 preserveAspectRatio="xMidYMid meet">

<g transform="translate(0.000000,92.000000) scale(0.100000,-0.100000)"
fill="#000000" stroke="none">
<path d="M210 484 c0 -5 20 -38 45 -73 48 -69 59 -70 23 -2 -22 41 -68 92 -68
75z"/>
<path d="M688 470 c-4 -12 -114 -60 -138 -60 -8 0 -29 -9 -46 -19 -18 -11 -58
-22 -90 -26 -58 -7 -99 -29 -88 -46 9 -15 140 -10 171 5 48 24 144 48 168 42
22 -6 24 -2 30 49 7 51 3 83 -7 55z"/>
<path d="M240 350 c0 -18 61 -123 79 -137 22 -17 118 -15 166 3 22 9 51 18 65
19 14 2 43 7 64 11 36 7 39 5 32 -12 -6 -17 -5 -17 8 -4 8 8 17 40 21 70 4 45
3 51 -6 33 -14 -26 -151 -72 -238 -80 -87 -8 -121 5 -158 61 -18 27 -33 43
-33 36z"/>
</g>
</svg>
